<svg width="71" height="71" viewBox="0 0 71 71" fill="none" xmlns="http://www.w3.org/2000/svg">
<path d="M30.5156 25.7031C30.9844 25.2344 31.5573 25 32.2344 25C32.9115 25 33.4844 25.2344 33.9531 25.7031C34.4219 26.1719 34.6562 26.7708 34.6562 27.5C34.6562 28.2292 34.4219 28.8281 33.9531 29.2969L30.125 33.2031H47.0781C47.7552 33.2031 48.3281 33.4635 48.7969 33.9844C49.2656 34.4531 49.5 35.026 49.5 35.7031C49.5 36.3802 49.2656 36.9792 48.7969 37.5C48.3281 37.9688 47.7552 38.2031 47.0781 38.2031H30.125L33.875 42.1094C34.3438 42.5781 34.5781 43.1771 34.5781 43.9062C34.5781 44.6354 34.3438 45.2344 33.875 45.7031C33.4062 46.1719 32.8333 46.4062 32.1562 46.4062C31.5312 46.4062 30.9844 46.1719 30.5156 45.7031L22.7031 37.4219C22.2344 36.9531 22 36.3802 22 35.7031C22 34.974 22.2344 34.375 22.7031 33.9062L30.5156 25.7031Z" fill="white"/>
</svg>
